{"title":"La Grande Bellezza (The Great Beauty) 2013 BDRip 720p GORESEWAGE","uid":9720538,"size":10945641764,"categoryP":"video","categoryS":"hd___movies","magnet":"?xt=urn:btih:f6661b9aedce730359329969a7edc50da3106fc3&amp;dn=La+Grande+Bellezza+%28The+Great+Beauty%29+2013+BDRip+720p+GORESEWAGE&amp;tr=udp%3A%2F%2Ftracker.openbittorrent.com%3A80&amp;tr=udp%3A%2F%2Fopen.demonii.com%3A1337&amp;tr=udp%3A%2F%2Ftracker.coppersurfer.tk%3A6969&amp;tr=udp%3A%2F%2Fexodus.desync.com%3A6969","seeders":6,"leechers":1,"uploader":"ABSTAIN","files":1,"time":1394228197,"description":"C:/GORESEWAGE/La Grande Bellezza (The Great Beauty) 2013 BDRip 720p GORESEWAGE.mkv\n  General\n    Unique ID : 252982424829816348173400391547664311370 (0xBE52A48A8005C3D193BC7D22F9ADA44A)\n    Complete name : C:/GORESEWAGE/La Grande Bellezza (The Great Beauty) 2013 BDRip 720p GORESEWAGE.mkv\n    Format : Matroska\n    Format version : Version 4 / Version 2\n    File size : 10.2 GiB\n    Duration : 2h 20mn\n    Overall bit rate : 10.4 Mbps\n    Movie name : La Grande Bellezza (The Great Beauty) 2013 BDRip 720p GORESEWAGE\n    Encoded date : UTC 2014-03-07 17:42:00\n    Writing application : mkvmerge v6.8.0 ('Theme for Great Cities') 64bit built on Mar  2 2014 21:34:26\n    Writing library : libebml v1.3.0 + libmatroska v1.4.1\n    Attachment : Yes\n  Video #1\n    ID : 1\n    Format : AVC\n    Format/Info : Advanced Video Codec\n    Format profile : &lt;a class=&quot;__cf_email__&quot; href=&quot;/cdn-cgi/l/email-protection&quot; data-cfemail=&quot;9bd3f2fcf3dbd7afb5aa&quot;&gt;[email&amp;#160;protected]&lt;/a&gt;&lt;script cf-hash='f9e31' type=&quot;text/javascript&quot;&gt;\n/* &lt;![CDATA[ */!function(){try{var t=&quot;currentScript&quot;in document?document.currentScript:function(){for(var t=document.getElementsByTagName(&quot;script&quot;),e=t.length;e--;)if(t[e].getAttribute(&quot;cf-hash&quot;))return t[e]}();if(t&amp;&amp;t.previousSibling){var e,r,n,i,c=t.previousSibling,a=c.getAttribute(&quot;data-cfemail&quot;);if(a){for(e=&quot;&quot;,r=parseInt(a.substr(0,2),16),n=2;a.length-n;n+=2)i=parseInt(a.substr(n,2),16)^r,e+=String.fromCharCode(i);e=document.createTextNode(e),c.parentNode.replaceChild(e,c)}}}catch(u){}}();/* ]]&gt; */&lt;/script&gt;\n    Format settings, CABAC : Yes\n    Format settings, ReFrames : 11 frames\n    Codec ID : V_MPEG4/ISO/AVC\n    Duration : 2h 20mn\n    Bit rate : 8 210 Kbps\n    Width : 1 280 pixels\n    Height : 544 pixels\n    Display aspect ratio : 2.35:1\n    Frame rate mode : Constant\n    Frame rate : 24.000 fps\n    Color space : YUV\n    Chroma subsampling : 4:2:0\n    Bit depth : 8 bits\n    Scan type : Progressive\n    Bits/(Pixel*Frame) : 0.491\n    Stream size : 8.07 GiB (79%)\n    Title : La Grande Bellezza (The Great Beauty) 2013 BDRip 720p GORESEWAGE\n    Writing library : x264 core 140 r2377 1ca7bb9\n    Encoding settings : cabac=1 / ref=11 / deblock=1:-3:-3 / analyse=0x3:0x113 / me=umh / subme=11 / psy=1 / psy_rd=1.05:0.00 / mixed_ref=1 / me_range=32 / chroma_me=1 / trellis=2 / 8x8dct=1 / cqm=0 / deadzone=21,11 / fast_pskip=0 / chroma_qp_offset=-2 / threads=48 / lookahead_threads=4 / sliced_threads=0 / nr=0 / decimate=0 / interlaced=0 / bluray_compat=0 / constrained_intra=0 / bframes=9 / b_pyramid=2 / b_adapt=2 / b_bias=0 / direct=3 / weightb=1 / open_gop=0 / weightp=2 / keyint=240 / keyint_min=24 / scenecut=40 / intra_refresh=0 / rc_lookahead=120 / rc=crf / mbtree=0 / crf=16.0 / qcomp=0.60 / qpmin=0 / qpmax=69 / qpstep=4 / vbv_maxrate=62500 / vbv_bufsize=78125 / crf_max=0.0 / nal_hrd=none / filler=0 / ip_ratio=1.40 / pb_ratio=1.30 / aq=2:0.80\n    Language : Italian\n    Default : Yes\n    Forced : No\n  Audio #2\n    ID : 2\n    Format : AC-3\n    Format/Info : Audio Coding 3\n    Mode extension : CM (complete main)\n    Format settings, Endianness : Big\n    Codec ID : A_AC3\n    Duration : 2h 20mn\n    Bit rate mode : Constant\n    Bit rate : 448 Kbps\n    Channel count : 6 channels\n    Channel positions : Front: L C R, Side: L R, LFE\n    Sampling rate : 48.0 KHz\n    Bit depth : 16 bits\n    Compression mode : Lossy\n    Stream size : 451 MiB (4%)\n    Title : MVO DVD R5\n    Language : Russian\n    Default : Yes\n    Forced : No\n  Audio #3\n    ID : 3\n    Format : DTS\n    Format/Info : Digital Theater Systems\n    Mode : 16\n    Format settings, Endianness : Big\n    Codec ID : A_DTS\n    Duration : 2h 20mn\n    Bit rate mode : Constant\n    Bit rate : 1 509 Kbps\n    Channel count : 6 channels\n    Channel positions : Front: L C R, Side: L R, LFE\n    Sampling rate : 48.0 KHz\n    Bit depth : 24 bits\n    Compression mode : Lossy\n    Stream size : 1.48 GiB (15%)\n    Title : Original\n    Language : Italian\n    Default : No\n    Forced : No\n  Text #4\n    ID : 4\n    Format : UTF-8\n    Codec ID : S_TEXT/UTF8\n    Codec ID/Info : UTF-8 Plain Text\n    Title : SDH\n    Language : Italian\n    Default : No\n    Forced : No\n  Text #5\n    ID : 5\n    Format : UTF-8\n    Codec ID : S_TEXT/UTF8\n    Codec ID/Info : UTF-8 Plain Text\n    Title : Full\n    Language : English\n    Default : No\n    Forced : No\n  Text #6\n    ID : 6\n    Format : UTF-8\n    Codec ID : S_TEXT/UTF8\n    Codec ID/Info : UTF-8 Plain Text\n    Title : Full\n    Language : German\n    Default : No\n    Forced : No\n  Text #7\n    ID : 7\n    Format : UTF-8\n    Codec ID : S_TEXT/UTF8\n    Codec ID/Info : UTF-8 Plain Text\n    Title : Full\n    Language : Greek\n    Default : No\n    Forced : No\n  Text #8\n    ID : 8\n    Format : UTF-8\n    Codec ID : S_TEXT/UTF8\n    Codec ID/Info : UTF-8 Plain Text\n    Title : Full BRA\n    Language : Portuguese\n    Default : No\n    Forced : No\n  Text #9\n    ID : 9\n    Format : UTF-8\n    Codec ID : S_TEXT/UTF8\n    Codec ID/Info : UTF-8 Plain Text\n    Title : Full\n    Language : Romanian\n    Default : No\n    Forced : No\n  Text #10\n    ID : 10\n    Format : UTF-8\n    Codec ID : S_TEXT/UTF8\n    Codec ID/Info : UTF-8 Plain Text\n    Title : Full\n    Language : Serbian\n    Default : No\n    Forced : No\n  Text #11\n    ID : 11\n    Format : UTF-8\n    Codec ID : S_TEXT/UTF8\n    Codec ID/Info : UTF-8 Plain Text\n    Title : Full\n    Language : Slovenian\n    Default : No\n    Forced : No\n  Text #12\n    ID : 12\n    Format : UTF-8\n    Codec ID : S_TEXT/UTF8\n    Codec ID/Info : UTF-8 Plain Text\n    Title : Full\n    Language : Spanish\n    Default : No\n    Forced : No\n  Text #13\n    ID : 13\n    Format : UTF-8\n    Codec ID : S_TEXT/UTF8\n    Codec ID/Info : UTF-8 Plain Text\n    Title : Full\n    Language : Turkish\n    Default : No\n    Forced : No\n  Menu\n    00:00:00.000 : :00:00:00.000\n    00:12:38.833 : :00:12:38.833\n    00:21:04.625 : :00:21:04.625\n    00:26:05.208 : :00:26:05.208\n    00:42:57.917 : :00:42:57.917\n    00:54:46.042 : :00:54:46.042\n    01:10:15.000 : :01:10:15.000\n    01:22:31.750 : :01:22:31.750\n    01:31:05.417 : :01:31:05.417\n    01:45:46.417 : :01:45:46.417\n    01:54:50.833 : :01:54:50.833\n    02:07:58.833 : :02:07:58.833","torrent":{"xt":"urn:btih:f6661b9aedce730359329969a7edc50da3106fc3","amp;dn":"La+Grande+Bellezza+%28The+Great+Beauty%29+2013+BDRip+720p+GORESEWAGE","amp;tr":["udp%3A%2F%2Ftracker.openbittorrent.com%3A80","udp%3A%2F%2Fopen.demonii.com%3A1337","udp%3A%2F%2Ftracker.coppersurfer.tk%3A6969","udp%3A%2F%2Fexodus.desync.com%3A6969"],"infoHash":"f6661b9aedce730359329969a7edc50da3106fc3","infoHashBuffer":{"type":"Buffer","data":[246,102,27,154,237,206,115,3,89,50,153,105,167,237,197,13,163,16,111,195]},"announce":[],"urlList":[]}}